<?xml version="1.0" encoding="utf-8"?>
<!-- Generator: Adobe Illustrator 23.0.1, SVG Export Plug-In . SVG Version: 6.00 Build 0)  -->
<svg version="1.1" id="Layer_1" xmlns="http://www.w3.org/2000/svg" xmlns:xlink="http://www.w3.org/1999/xlink" x="0px" y="0px"
	 viewBox="0 0 120 120" style="enable-background:new 0 0 120 120;" xml:space="preserve">
<style type="text/css">
	.st0{fill:#749DD8;}
	.st1{opacity:0.5;fill:#231F20;enable-background:new    ;}
	.st2{fill:#333333;}
</style>
<title>logo</title>
<path class="st0" d="M45,45.9l-3.6,14l-8.7-33.3l-1-3.8c0.7-2.8,1.3-5.2,1.8-7h3.6L45,45.9z"/>
<path class="st0" d="M88.3,22.7l-1,3.8l-8.5,32.6l-3.6-14l7.7-29.4h3.6C86.9,17.5,87.5,19.9,88.3,22.7z"/>
<path class="st0" d="M68.5,63.4L59.9,97l-8.4-32.4l-3.6,14l6.6,25.7h10.7l6.9-26.8L68.5,63.4z"/>
<path class="st1" d="M33.6,15.7h2l-0.1,0.5c-0.4,1.6-1,3.7-1.6,6.2l-0.2,0.9l0,0l-0.9,3.3l-1-3.8C32.5,19.9,33.1,17.5,33.6,15.7z"/>
<path class="st1" d="M88.3,22.7l-1,3.8c-1.3-4.8-2.3-8.6-2.8-10.8h2C86.9,17.5,87.5,19.9,88.3,22.7z"/>
<path class="st2" d="M93.7,15.7h-7.2l21,81.4H86.6l-21-81.4H54.7l-21,81.4H12.5l19.2-74.4l0,0c0.7-2.8,1.3-5.2,1.8-7h-7.2L3.5,104.1
	h35.7l21-81.4l21,81.4h35.3L93.7,15.7z"/>
</svg>
