<svg id="Layer_1" data-name="Layer 1" xmlns="http://www.w3.org/2000/svg" viewBox="0 0 120 120"><defs><style>.cls-1{fill:#ffb001;}.cls-2{fill:#231f20;opacity:0.5;}.cls-3{fill:#333;}</style></defs><title>logo</title><path class="cls-1" d="M45,45.86l-3.61,14L32.73,26.54l-1-3.8c.73-2.81,1.35-5.2,1.81-7h3.62Z"/><path class="cls-1" d="M88.25,22.71l-1,3.79L78.74,59.09l-3.61-14,7.7-29.38h3.61C86.92,17.54,87.53,19.91,88.25,22.71Z"/><path class="cls-1" d="M68.52,63.43,59.86,97,51.48,64.55l-3.62,14,6.63,25.71H65.22l6.92-26.83Z"/><path class="cls-2" d="M33.56,15.72h2l-.12.47c-.42,1.64-1,3.73-1.6,6.18l-.21.85h0l-.86,3.32-1-3.8C32.48,19.93,33.1,17.54,33.56,15.72Z"/><path class="cls-2" d="M88.25,22.71l-1,3.79C86,21.66,85,17.85,84.47,15.72h2C86.92,17.54,87.53,19.91,88.25,22.71Z"/><path class="cls-3" d="M93.68,15.72H86.45l21,81.42H86.59l-21-81.42H54.71l-21,81.42H12.54L31.75,22.71v0c.72-2.81,1.34-5.2,1.81-7H26.32L3.5,104.14H39.16l21-81.43,21,81.43H116.5Z"/></svg>