<?xml version="1.0" encoding="utf-8"?>
<!-- Generator: Adobe Illustrator 23.0.1, SVG Export Plug-In . SVG Version: 6.00 Build 0)  -->
<svg version="1.1" id="Layer_1" xmlns="http://www.w3.org/2000/svg" xmlns:xlink="http://www.w3.org/1999/xlink" x="0px" y="0px"
	 viewBox="0 0 16 16" style="enable-background:new 0 0 16 16;" xml:space="preserve">
<style type="text/css">
	.st0{stroke:#000000;stroke-width:0.2;stroke-miterlimit:10;}
</style>
<path class="st0" d="M12.1,0.4c0.8-0.2,1.6,0.3,1.8,1.1c0,0.1,0,0.2,0,0.4v1.2h0.5c0.8,0,1.5,0.7,1.5,1.5v8.9c0,0.8-0.7,1.5-1.5,1.5
	H1.6c-0.8,0-1.5-0.7-1.5-1.5V4.5c0-0.8,0.6-1.4,1.4-1.5L12.1,0.4z M5.6,3.1h7.3V1.9c0-0.3-0.2-0.5-0.5-0.5c0,0-0.1,0-0.1,0L5.6,3.1z
	 M1.6,4.1c-0.3,0-0.5,0.2-0.5,0.5v8.9c0,0.3,0.2,0.5,0.5,0.5h12.8c0.3,0,0.5-0.2,0.5-0.5V4.5c0-0.3-0.2-0.5-0.5-0.5H1.6z"/>
</svg>
